Coordinates
version=1
nRows=21
nColumns=22
inDegrees=yes

Units are S.I. units (second, meters, Newtons, ...)
If the header above contains a line with 'inDegrees', this indicates whether rotational values are in degrees (yes) or radians (no).

endheader
time	pelvis_tilt	pelvis_list	pelvis_rotation	pelvis_tx	pelvis_ty	pelvis_tz	hip_flexion_r	hip_adduction_r	hip_rotation_r	knee_angle_r	ankle_angle_r	subtalar_angle_r	hip_flexion_l	hip_adduction_l	hip_rotation_l	knee_angle_l	ankle_angle_l	subtalar_angle_l	lumbar_extension	lumbar_bending	lumbar_rotation
      1.42000000	     -3.90216570	      5.17447704	    127.34430751	     -0.59486711	      0.90720430	      0.75716029	    -20.06000379	     10.66398719	     12.28731488	    -18.36261623	     17.28027267	     -8.75863411	     22.53368855	     -3.41722755	      3.22805587	    -16.25987923	     11.26347976	      1.66558509	    -12.67524463	      3.22978794	     -8.51462360
      1.43000000	     -3.96975374	      4.95508316	    126.80657652	     -0.60246564	      0.90649247	      0.74789996	    -20.11776236	     10.28953283	     12.33333857	    -19.48408045	     16.38213710	     -7.76016901	     22.76479947	     -2.95415776	      4.26239484	    -17.81886879	     10.78667536	      1.21116706	    -12.27927323	      2.93624704	     -8.75463399
      1.44000000	     -4.03662549	      4.73086913	    126.25267360	     -0.61006611	      0.90603891	      0.73839192	    -20.07848586	      9.90728575	     12.34400733	    -20.73494894	     15.16145880	     -6.45067400	     22.97603573	     -2.51140014	      5.13620264	    -19.46115520	     10.25889752	      0.67741489	    -11.85114611	      2.63176360	     -8.94548898
      1.45000000	     -4.10040234	      4.53100925	    125.69925001	     -0.61764824	      0.90586963	      0.72872209	    -19.93842483	      9.53847518	     12.25589580	    -22.14226898	     13.60573049	     -4.94262160	     23.14219852	     -2.10575960	      5.86069007	    -21.12814703	      9.72651109	      0.12898111	    -11.42907741	      2.34850745	     -9.10410809
      1.46000000	     -4.19487068	      4.36473904	    125.11881489	     -0.62513076	      0.90603897	      0.71885571	    -19.71183811	      9.15334483	     12.09318733	    -23.72274381	     11.70159287	     -3.19211740	     23.20022251	     -1.74198827	      6.35544357	    -22.73753987	      9.27921924	     -0.41874337	    -11.05020034	      2.04850498	     -9.24148407
      1.47000000	     -4.31622825	      4.25055180	    124.51835864	     -0.63247431	      0.90654398	      0.70885755	    -19.39436719	      8.75953145	     11.80494755	    -25.48171588	      9.45965816	     -1.28772937	     23.13624661	     -1.43407857	      6.65218490	    -24.26167777	      8.96688624	     -0.94633932	    -10.74188622	      1.74918275	     -9.34241997
      1.48000000	     -4.46585069	      4.19888950	    123.90238711	     -0.63964703	      0.90737231	      0.69878530	    -18.97883881	      8.35726778	     11.38020843	    -27.43042885	      6.92065853	      0.66267512	     22.93331533	     -1.18905630	      6.75305861	    -25.66997570	      8.83745470	     -1.44933274	    -10.52496197	      1.45922984	     -9.43793153
      1.49000000	     -4.66056372	      4.20459170	    123.24908457	     -0.64658208	      0.90849749	      0.68868192	    -18.44366965	      7.91275834	     10.81208484	    -29.59872848	      4.16742742	      2.59171272	     22.56766711	     -0.99563589	      6.65881598	    -26.92364770	      8.91813582	     -1.93069221	    -10.41788913	      1.15438834	     -9.51739357
      1.50000000	     -4.88950500	      4.25921848	    122.55954098	     -0.65325293	      0.90984732	      0.67863625	    -17.75545431	      7.41973770	     10.09584036	    -31.99971355	      1.30604769	      4.35505381	     22.05320798	     -0.84707353	      6.40677256	    -28.01151297	      9.21019518	     -2.39443877	    -10.41651733	      0.84500650	     -9.59316027
      1.51000000	     -5.13434346	      4.36229166	    121.84870183	     -0.65965544	      0.91134284	      0.66874184	    -16.89778919	      6.88604853	      9.23057649	    -34.61941337	     -1.56042516	      5.80942500	     21.42541584	     -0.74539878	      6.01589670	    -28.96513711	      9.67660683	     -2.85288914	    -10.51967268	      0.55599028	     -9.70265180
      1.52000000	     -5.40391526	      4.47576551	    121.08352524	     -0.66575145	      0.91290112	      0.65904753	    -15.82594975	      6.26682966	      8.27476291	    -37.47536981	     -4.26517150	      6.97093757	     20.68479681	     -0.65122349	      5.53043162	    -29.73341029	     10.32482523	     -3.31381224	    -10.70152259	      0.25324098	     -9.79430601
      1.53000000	     -5.67707279	      4.59809149	    120.28243388	     -0.67154082	      0.91445547	      0.64961945	    -14.54359329	      5.58677854	      7.26862713	    -40.51537714	     -6.72644767	      7.70680058	     19.88379851	     -0.57705846	      4.92427094	    -30.36966093	     11.03932478	     -3.74882266	    -10.95166907	     -0.03428985	     -9.93751021
      1.54000000	     -5.94895180	      4.70178869	    119.42631606	     -0.67701744	      0.91593308	      0.64047354	    -13.03508568	      4.84533608	      6.30648406	    -43.70845884	     -8.77726425	      8.22051371	     19.03109917	     -0.49195619	      4.27780106	    -30.84478096	     11.89804882	     -4.22612616	    -11.23921621	     -0.32070932	    -10.07368318
      1.55000000	     -6.20311661	      4.78674091	    118.52204899	     -0.68216941	      0.91731543	      0.63161811	    -11.32136255	      4.08311930	      5.44518279	    -46.97890649	    -10.37139731	      8.46194499	     18.15738035	     -0.41106414	      3.57140444	    -31.18653160	     12.76800513	     -4.67780237	    -11.55092025	     -0.58939973	    -10.22422608
      1.56000000	     -6.43810536	      4.84453167	    117.56502332	     -0.68698884	      0.91858921	      0.62301936	     -9.42477499	      3.32944803	      4.74970808	    -50.25655853	    -11.45386012	      8.52908880	     17.28073682	     -0.33641407	      2.77935959	    -31.41139249	     13.60818467	     -5.09102094	    -11.86832818	     -0.84442343	    -10.40378497
      1.57000000	     -6.62646043	      4.86945798	    116.57314230	     -0.69151851	      0.91974028	      0.61466605	     -7.35891769	      2.63840471	      4.22478017	    -53.46323817	    -11.99503434	      8.46215815	     16.42195652	     -0.26929668	      1.99106095	    -31.52366850	     14.48269791	     -5.57376221	    -12.16161815	     -1.05911514	    -10.57965850
      1.58000000	     -6.79457156	      4.89182560	    115.53142089	     -0.69571481	      0.92087331	      0.60647091	     -5.20258360	      2.02486618	      3.88833555	    -56.51672669	    -12.04501673	      8.30868335	     15.53372734	     -0.22078093	      1.13317228	    -31.52067207	     15.24305274	     -5.91141819	    -12.46629887	     -1.25835896	    -10.71641762
      1.59000000	     -6.87771577	      4.85918582	    114.50652115	     -0.69970567	      0.92187367	      0.59844219	     -2.91118808	      1.55604865	      3.66592647	    -59.34957373	    -11.63791085	      7.86517231	     14.72600748	     -0.19650934	      0.33364853	    -31.45052006	     16.06828315	     -6.45719512	    -12.67863208	     -1.38281696	    -10.92917932
      1.60000000	     -6.93368501	      4.84114662	    113.46804645	     -0.70342914	      0.92294609	      0.59047051	     -0.61918226	      1.20706038	      3.55092162	    -61.88821921	    -10.85181791	      7.29042329	     13.87753310	     -0.20694989	     -0.52076268	    -31.28053038	     16.75969094	     -6.84327180	    -12.89473936	     -1.47719714	    -11.11239741
      1.61000000	     -6.93825714	      4.83352723	    112.45145205	     -0.70696218	      0.92409718	      0.58253358	      1.64955296	      0.99831447	      3.47375167	    -64.07339530	     -9.76733382	      6.50038392	     13.00640061	     -0.26028809	     -1.37387681	    -31.02096963	     17.38432128	     -7.18065715	    -13.08843312	     -1.50860341	    -11.31245327
      1.62000000	     -6.89175143	      4.84699056	    111.48776313	     -0.71033122	      0.92536048	      0.57460119	      3.84981443	      0.92992520	      3.37777363	    -65.86784637	     -8.46202808	      5.51112007	     12.10376497	     -0.36095503	     -2.20675483	    -30.67916146	     17.93857532	     -7.45323114	    -13.26850013	     -1.47803143	    -11.52594279
